<svg xmlns="http://www.w3.org/2000/svg" xmlns:xlink="http://www.w3.org/1999/xlink" viewBox="0 0 1000 1000"><defs><style>.cls-1{fill:none;}.cls-2{clip-path:url(#clip-path);}.cls-3{fill:#231f20;}.cls-4{clip-path:url(#clip-path-2);}.cls-5{fill:#ee4036;}.cls-6{fill:#652d90;}.cls-7{fill:#f05a28;}.cls-8{fill:#00adee;}</style><clipPath id="clip-path" transform="translate(0)"><rect class="cls-1" width="1000" height="1000"/></clipPath><clipPath id="clip-path-2" transform="translate(0)"><rect class="cls-1" x="100.63" y="101.6" width="798.74" height="796.8"/></clipPath></defs><title>Asset 2</title><g id="Layer_2" data-name="Layer 2"><g id="Layer_1-2" data-name="Layer 1"><g class="cls-2"><path class="cls-3" d="M439.1,507.55V487.43C439.1,459.14,462,436,490,436H510c28,0,50.94,23.15,50.94,51.44v20.11C560.9,535.83,538,559,510,559H490c-28,0-50.94-23.15-50.94-51.43" transform="translate(0)"/><path class="cls-3" d="M936.87,527A82.06,82.06,0,0,0,1000,497.34a82.05,82.05,0,0,0-126.26,0A82.07,82.07,0,0,0,936.87,527" transform="translate(0)"/><path class="cls-3" d="M63.13,467.85A82.1,82.1,0,0,0,0,497.49a82.06,82.06,0,0,0,126.26,0,82.1,82.1,0,0,0-63.13-29.64" transform="translate(0)"/><path class="cls-3" d="M470.8,936.27A83.5,83.5,0,0,0,500.16,1000a83.87,83.87,0,0,0,0-127.48,83.52,83.52,0,0,0-29.36,63.74" transform="translate(0)"/><path class="cls-3" d="M529.2,63.74A83.51,83.51,0,0,0,499.85,0a83.87,83.87,0,0,0,0,127.48A83.49,83.49,0,0,0,529.2,63.74" transform="translate(0)"/></g><g class="cls-4"><path class="cls-5" d="M660.4,544.2a129.33,129.33,0,0,0,99.5-46.72,129.33,129.33,0,0,0-199,0,129.33,129.33,0,0,0,99.5,46.72" transform="translate(0)"/><path class="cls-6" d="M453.73,659.43A131.59,131.59,0,0,0,500,759.88,132.18,132.18,0,0,0,500,559a131.61,131.61,0,0,0-46.27,100.45" transform="translate(0)"/><path class="cls-7" d="M453.73,335.55A131.57,131.57,0,0,0,500,436a132.17,132.17,0,0,0,0-200.9,131.6,131.6,0,0,0-46.27,100.45" transform="translate(0)"/><path class="cls-8" d="M339.6,544.2a129.33,129.33,0,0,0,99.5-46.72,129.33,129.33,0,0,0-199,0,129.33,129.33,0,0,0,99.5,46.72" transform="translate(0)"/><path class="cls-8" d="M858.66,556.95a54.36,54.36,0,0,0,37.12,27.29A55.34,55.34,0,0,0,892.53,538a54.38,54.38,0,0,0-37.12-27.28,55.31,55.31,0,0,0,3.25,46.24" transform="translate(0)"/><path class="cls-5" d="M857.72,438a54.37,54.37,0,0,1,37.12-27.28A55.32,55.32,0,0,1,891.58,457a54.36,54.36,0,0,1-37.12,27.29A55.34,55.34,0,0,1,857.72,438" transform="translate(0)"/><path class="cls-8" d="M141.34,437.87a54.4,54.4,0,0,0-37.12-27.29,55.34,55.34,0,0,0,3.25,46.25,54.38,54.38,0,0,0,37.12,27.28,55.32,55.32,0,0,0-3.25-46.24" transform="translate(0)"/><path class="cls-5" d="M142.28,556.78a54.35,54.35,0,0,1-37.12,27.29,55.32,55.32,0,0,1,3.25-46.24,54.37,54.37,0,0,1,37.12-27.29,55.3,55.3,0,0,1-3.25,46.24" transform="translate(0)"/><path class="cls-8" d="M441.11,857.31a54.81,54.81,0,0,0-27,37.47,53.88,53.88,0,0,0,45.8-3.28,54.84,54.84,0,0,0,27-37.48,53.86,53.86,0,0,0-45.8,3.29" transform="translate(0)"/><path class="cls-5" d="M558.89,856.35a54.82,54.82,0,0,1,27,37.48,53.85,53.85,0,0,1-45.8-3.29,54.82,54.82,0,0,1-27-37.47,53.89,53.89,0,0,1,45.8,3.28" transform="translate(0)"/><path class="cls-8" d="M558.89,142.7a54.82,54.82,0,0,0,27-37.48,53.85,53.85,0,0,0-45.8,3.29,54.82,54.82,0,0,0-27,37.47,53.89,53.89,0,0,0,45.8-3.28" transform="translate(0)"/><path class="cls-5" d="M441.11,143.65a54.81,54.81,0,0,1-27-37.48,53.93,53.93,0,0,1,45.8,3.29,54.82,54.82,0,0,1,27,37.48,53.85,53.85,0,0,1-45.8-3.29" transform="translate(0)"/></g></g></g></svg>